<svg width="40" height="40" viewBox="0 0 40 40" fill="none" xmlns="http://www.w3.org/2000/svg">
<path d="M12.9173 4.16699C12.9173 3.47664 12.3577 2.91699 11.6673 2.91699C10.977 2.91699 10.4173 3.47664 10.4173 4.16699V6.79909C8.01843 6.99118 6.4436 7.46262 5.28661 8.61961C4.12961 9.77661 3.65817 11.3514 3.46608 13.7503H36.5352C36.3431 11.3514 35.8717 9.77661 34.7147 8.61961C33.5577 7.46262 31.9829 6.99118 29.584 6.79909V4.16699C29.584 3.47664 29.0243 2.91699 28.334 2.91699C27.6436 2.91699 27.084 3.47664 27.084 4.16699V6.6885C25.9752 6.66699 24.7324 6.66699 23.334 6.66699H16.6673C15.2689 6.66699 14.0261 6.66699 12.9173 6.6885V4.16699Z" fill="#6ACAAD"/>
<path fill-rule="evenodd" clip-rule="evenodd" d="M3.33398 20.0003C3.33398 18.6019 3.33398 17.3591 3.35549 16.2503H36.6458C36.6673 17.3591 36.6673 18.6019 36.6673 20.0003V23.3337C36.6673 29.6191 36.6673 32.7617 34.7147 34.7144C32.7621 36.667 29.6194 36.667 23.334 36.667H16.6673C10.3819 36.667 7.23923 36.667 5.28661 34.7144C3.33398 32.7617 3.33398 29.6191 3.33398 23.3337V20.0003ZM28.334 23.3337C29.2545 23.3337 30.0007 22.5875 30.0007 21.667C30.0007 20.7465 29.2545 20.0003 28.334 20.0003C27.4135 20.0003 26.6673 20.7465 26.6673 21.667C26.6673 22.5875 27.4135 23.3337 28.334 23.3337ZM28.334 30.0003C29.2545 30.0003 30.0007 29.2541 30.0007 28.3337C30.0007 27.4132 29.2545 26.667 28.334 26.667C27.4135 26.667 26.6673 27.4132 26.6673 28.3337C26.6673 29.2541 27.4135 30.0003 28.334 30.0003ZM21.6673 21.667C21.6673 22.5875 20.9211 23.3337 20.0007 23.3337C19.0802 23.3337 18.334 22.5875 18.334 21.667C18.334 20.7465 19.0802 20.0003 20.0007 20.0003C20.9211 20.0003 21.6673 20.7465 21.6673 21.667ZM21.6673 28.3337C21.6673 29.2541 20.9211 30.0003 20.0007 30.0003C19.0802 30.0003 18.334 29.2541 18.334 28.3337C18.334 27.4132 19.0802 26.667 20.0007 26.667C20.9211 26.667 21.6673 27.4132 21.6673 28.3337ZM11.6673 23.3337C12.5878 23.3337 13.334 22.5875 13.334 21.667C13.334 20.7465 12.5878 20.0003 11.6673 20.0003C10.7468 20.0003 10.0007 20.7465 10.0007 21.667C10.0007 22.5875 10.7468 23.3337 11.6673 23.3337ZM11.6673 30.0003C12.5878 30.0003 13.334 29.2541 13.334 28.3337C13.334 27.4132 12.5878 26.667 11.6673 26.667C10.7468 26.667 10.0007 27.4132 10.0007 28.3337C10.0007 29.2541 10.7468 30.0003 11.6673 30.0003Z" fill="#6ACAAD"/>
</svg>
