<svg width="67" height="68" viewBox="0 0 67 68" fill="none" xmlns="http://www.w3.org/2000/svg">
<path fill-rule="evenodd" clip-rule="evenodd" d="M47.7006 14.1182C49.1044 14.3536 51.1321 14.9028 52.0679 16.0799C53.0818 19.6109 54.0956 23.2205 55.0314 26.83C55.5774 26.4376 56.1233 26.2022 56.8252 26.2022H61.0365C62.7522 26.2022 64 27.6147 64 29.2625C64 30.9103 62.6742 32.2443 61.0365 32.2443H59.0868C59.6327 33.4998 60.1786 35.3045 60.1786 37.894C60.2566 43.0729 60.2566 48.1733 60.2566 53.2737C60.2566 54.2153 59.4767 55 58.5409 55H50.9761C50.0403 55 49.2604 54.2153 49.2604 53.2737C49.2604 52.646 49.2604 51.9397 49.2604 51.312H16.7396C16.7396 51.9397 16.7396 52.646 16.7396 53.2737C16.7396 54.2153 15.9597 55 15.0239 55H7.45912C6.52327 55 5.7434 54.2153 5.7434 53.2737C5.7434 48.1733 5.82138 43.0729 5.82138 37.894C5.82138 35.3045 6.3673 33.4998 6.91321 32.2443H4.96352C3.2478 32.2443 2 30.8319 2 29.184C2 27.5362 3.32579 26.2022 4.96352 26.2022H9.17484C9.87673 26.2022 10.4226 26.4376 10.9686 26.83C11.9044 23.2205 12.9182 19.6109 13.9321 16.0799C14.8679 14.9028 16.8956 14.3536 18.2994 14.1182C28.1258 12.6273 37.8742 12.6273 47.7006 14.1182ZM51.6 26.5161C50.8201 23.4559 49.9623 20.3956 49.1824 17.4138C38.5761 15.6091 27.4239 15.6091 16.8176 17.4138C16.0377 20.3956 15.1799 23.4559 14.4 26.5161C26.566 25.1822 39.434 25.1822 51.6 26.5161ZM14.0881 40.4834C13.7761 38.6002 13.4642 36.717 13.2302 34.8337C16.5057 34.6768 19.4692 34.9907 22.1208 35.9323C23.2906 36.56 24.1484 37.8155 24.9283 39.1495C25.3182 40.0911 25.3182 40.7973 24.3824 41.0327C20.873 41.1896 17.4415 40.9542 14.0881 40.4834ZM51.912 40.4834C52.2239 38.6002 52.5359 36.717 52.7698 34.8337C49.5723 34.6768 46.5308 34.9907 43.8792 35.9323C42.7874 36.56 41.8516 37.8155 41.0717 39.1495C40.6818 40.0911 40.6818 40.7973 41.6956 41.0327C45.127 41.1896 48.5585 40.9542 51.912 40.4834Z" fill="#589FFF"/>
</svg>
