<svg width="40" height="40" viewBox="0 0 40 40" fill="none" xmlns="http://www.w3.org/2000/svg">
<path d="M3.33398 20.2064C3.33398 10.8875 10.7959 3.33301 20.0006 3.33301C29.2053 3.33301 36.6671 10.8875 36.6671 20.2064L36.6672 28.9454C36.6677 30.3069 36.668 31.2407 36.4287 32.0604C35.9607 33.6633 34.8416 34.9892 33.3506 35.7072C32.5882 36.0744 31.6772 36.2197 30.3487 36.4316L30.1321 36.4662C29.6597 36.5417 29.256 36.6062 28.921 36.6395C28.5726 36.6742 28.2171 36.6848 27.8536 36.6123C26.6576 36.3739 25.6712 35.5206 25.252 34.3617C25.1246 34.0095 25.0796 33.6524 25.059 33.2985C25.0393 32.9584 25.0393 32.5447 25.0393 32.0606L25.0392 25.1066C25.0383 24.3974 25.0376 23.7872 25.1998 23.2646C25.571 22.069 26.5403 21.1622 27.7468 20.8816C28.2741 20.759 28.8749 20.8078 29.5731 20.8645L29.7285 20.877L29.9116 20.8916C31.2177 20.9955 32.1114 21.0666 32.87 21.3507C33.4031 21.5503 33.8976 21.8252 34.3416 22.1624V20.2064C34.3416 12.1878 27.9209 5.68744 20.0006 5.68744C12.0802 5.68744 5.65955 12.1878 5.65955 20.2064V22.1624C6.10358 21.8252 6.59803 21.5503 7.13113 21.3507C7.88974 21.0666 8.7834 20.9955 10.0896 20.8916L10.2726 20.877L10.428 20.8645C11.1262 20.8078 11.727 20.759 12.2544 20.8816C13.4608 21.1622 14.4301 22.069 14.8013 23.2646C14.9636 23.7872 14.9628 24.3974 14.962 25.1066L14.9618 32.0605C14.9618 32.5447 14.9619 32.9584 14.9421 33.2985C14.9215 33.6524 14.8765 34.0095 14.7491 34.3617C14.3299 35.5206 13.3436 36.3739 12.1475 36.6123C11.784 36.6848 11.4286 36.6742 11.0801 36.6395C10.7452 36.6062 10.3415 36.5417 9.86902 36.4662L9.65241 36.4316C8.32396 36.2197 7.41294 36.0744 6.6505 35.7072C5.15955 34.9892 4.04045 33.6633 3.57245 32.0604C3.3751 31.3844 3.34071 30.631 3.33499 29.6241L3.33398 29.3002V20.2064Z" fill="#6ACAAD"/>
<path fill-rule="evenodd" clip-rule="evenodd" d="M20.0006 9.58301C20.6909 9.58301 21.2506 10.1427 21.2506 10.833L21.2506 19.1663C21.2506 19.8567 20.6909 20.4163 20.0006 20.4163C19.3102 20.4163 18.7506 19.8567 18.7506 19.1663L18.7506 10.833C18.7506 10.1427 19.3102 9.58301 20.0006 9.58301Z" fill="#6ACAAD"/>
<path fill-rule="evenodd" clip-rule="evenodd" d="M25.0006 12.083C25.6909 12.083 26.2506 12.6427 26.2506 13.333V16.6663C26.2506 17.3567 25.6909 17.9163 25.0006 17.9163C24.3102 17.9163 23.7506 17.3567 23.7506 16.6663V13.333C23.7506 12.6427 24.3102 12.083 25.0006 12.083Z" fill="#6ACAAD"/>
<path fill-rule="evenodd" clip-rule="evenodd" d="M15.0006 12.083C15.6909 12.083 16.2506 12.6427 16.2506 13.333V16.6663C16.2506 17.3567 15.6909 17.9163 15.0006 17.9163C14.3102 17.9163 13.7506 17.3567 13.7506 16.6663V13.333C13.7506 12.6427 14.3102 12.083 15.0006 12.083Z" fill="#6ACAAD"/>
</svg>
