<svg width="40" height="40" viewBox="0 0 40 40" fill="none" xmlns="http://www.w3.org/2000/svg">
<path fill-rule="evenodd" clip-rule="evenodd" d="M10 13.5121C10 7.89035 14.4772 3.33301 20 3.33301C25.5228 3.33301 30 7.89035 30 13.5121C30 19.0898 26.8083 25.5985 21.8287 27.9261C20.6678 28.4687 19.3322 28.4687 18.1713 27.9261C13.1917 25.5985 10 19.0898 10 13.5121ZM20 16.6663C21.8409 16.6663 23.3333 15.174 23.3333 13.333C23.3333 11.4921 21.8409 9.99967 20 9.99967C18.1591 9.99967 16.6667 11.4921 16.6667 13.333C16.6667 15.174 18.1591 16.6663 20 16.6663Z" fill="#6ACAAD"/>
<path fill-rule="evenodd" clip-rule="evenodd" d="M6.04617 24.2238C6.4749 24.7649 6.3838 25.5511 5.8427 25.9798C4.8866 26.7373 4.58398 27.4051 4.58398 27.9167C4.58398 28.3216 4.76779 28.8134 5.31839 29.3827C5.87462 29.9578 6.74369 30.542 7.92659 31.0785C10.017 32.0266 12.9065 32.7444 16.2507 33.0572V32.2917C16.2507 31.8012 16.5375 31.3561 16.9841 31.1534C17.4308 30.9508 17.9547 31.028 18.3238 31.351L20.8238 33.5385C21.0951 33.7759 21.2507 34.1188 21.2507 34.4792C21.2507 34.8397 21.0951 35.1826 20.8238 35.4199L18.3238 37.6074C17.9547 37.9304 17.4308 38.0077 16.9841 37.805C16.5375 37.6023 16.2507 37.1572 16.2507 36.6667V35.5674C12.6092 35.2479 9.34943 34.4689 6.89397 33.3553C5.53755 32.7401 4.36847 31.9966 3.52138 31.1208C2.66867 30.2391 2.08398 29.1567 2.08398 27.9167C2.08398 26.333 3.02843 25.02 4.29016 24.0203C4.83125 23.5916 5.61745 23.6827 6.04617 24.2238ZM33.9551 24.2238C34.3839 23.6827 35.17 23.5916 35.7111 24.0203C36.9729 25.02 37.9173 26.333 37.9173 27.9167C37.9173 30.2135 35.9706 31.9344 33.673 33.0856C31.2701 34.2897 27.9857 35.1419 24.2934 35.5161C23.6065 35.5857 22.9933 35.0853 22.9237 34.3985C22.8541 33.7117 23.3544 33.0984 24.0413 33.0288C27.5374 32.6745 30.503 31.8778 32.553 30.8506C34.7083 29.7706 35.4173 28.6778 35.4173 27.9167C35.4173 27.4051 35.1147 26.7373 34.1586 25.9798C33.6175 25.5511 33.5264 24.7649 33.9551 24.2238Z" fill="#6ACAAD"/>
</svg>
