<svg width="40" height="40" viewBox="0 0 40 40" fill="none" xmlns="http://www.w3.org/2000/svg">
<path fill-rule="evenodd" clip-rule="evenodd" d="M23.798 3.58674C23.1808 3.33301 22.3983 3.33301 20.8333 3.33301C19.2684 3.33301 18.4859 3.33301 17.8687 3.58674C17.0457 3.92506 16.3918 4.57397 16.0509 5.39073C15.8953 5.76358 15.8344 6.19718 15.8106 6.82966C15.7756 7.75914 15.2953 8.6195 14.4836 9.08456C13.672 9.54961 12.6811 9.53224 11.8525 9.09761C11.2886 8.80184 10.8798 8.63738 10.4766 8.5847C9.59348 8.46931 8.7003 8.70683 7.99359 9.24501C7.46356 9.64864 7.07232 10.3212 6.28984 11.6662C5.50736 13.0113 5.11612 13.6838 5.02891 14.3412C4.91264 15.2177 5.15197 16.1041 5.69424 16.8055C5.94176 17.1256 6.28962 17.3947 6.82951 17.7314C7.62319 18.2263 8.13387 19.0694 8.13382 19.9997C8.13377 20.9299 7.62311 21.7729 6.8295 22.2678C6.28953 22.6045 5.94162 22.8736 5.69408 23.1938C5.1518 23.8951 4.91248 24.7816 5.02875 25.6581C5.11595 26.3154 5.50719 26.9879 6.28967 28.333C7.07216 29.6781 7.4634 30.3506 7.99343 30.7542C8.70014 31.2924 9.59332 31.5299 10.4765 31.4145C10.8796 31.3619 11.2884 31.1974 11.8522 30.9017C12.6809 30.467 13.6718 30.4496 14.4835 30.9147C15.2952 31.3798 15.7756 32.2402 15.8106 33.1698C15.8344 33.8022 15.8953 34.2358 16.0509 34.6086C16.3918 35.4254 17.0457 36.0743 17.8687 36.4126C18.4859 36.6663 19.2684 36.6663 20.8333 36.6663C22.3983 36.6663 23.1808 36.6663 23.798 36.4126C24.621 36.0743 25.2748 35.4254 25.6157 34.6086C25.7714 34.2358 25.8323 33.8021 25.8561 33.1696C25.8911 32.2402 26.3714 31.3798 27.183 30.9147C27.9947 30.4496 28.9857 30.4669 29.8143 30.9016C30.3781 31.1973 30.7869 31.3617 31.19 31.4144C32.0732 31.5298 32.9664 31.2923 33.6731 30.7541C34.2031 30.3505 34.5943 29.6779 35.3768 28.3329C36.1593 26.9878 36.5506 26.3153 36.6378 25.6579C36.754 24.7814 36.5147 23.895 35.9724 23.1936C35.7249 22.8735 35.377 22.6044 34.8371 22.2677C34.0434 21.7728 33.5328 20.9297 33.5328 19.9995C33.5329 19.0694 34.0435 18.2265 34.8371 17.7317C35.3771 17.3949 35.725 17.1258 35.9726 16.8056C36.5149 16.1042 36.7542 15.2178 36.6379 14.3413C36.5507 13.6839 36.1595 13.0114 35.377 11.6663C34.5945 10.3213 34.2033 9.64876 33.6732 9.24512C32.9665 8.70694 32.0733 8.46942 31.1902 8.58482C30.787 8.63749 30.3782 8.80194 29.8144 9.09767C28.9858 9.53233 27.9948 9.54971 27.1831 9.08461C26.3714 8.61952 25.8911 7.75911 25.8561 6.82957C25.8322 6.19714 25.7713 5.76356 25.6157 5.39073C25.2748 4.57397 24.621 3.92506 23.798 3.58674ZM20.8333 24.9997C23.6158 24.9997 25.8714 22.7611 25.8714 19.9997C25.8714 17.2383 23.6158 14.9997 20.8333 14.9997C18.0509 14.9997 15.7953 17.2383 15.7953 19.9997C15.7953 22.7611 18.0509 24.9997 20.8333 24.9997Z" fill="#6ACAAD"/>
</svg>
