<svg width="41" height="40" viewBox="0 0 41 40" fill="none" xmlns="http://www.w3.org/2000/svg">
<path d="M33.6526 31.3148C34.2371 29.5216 36.9761 11.6498 37.3146 8.12828C37.4169 7.06172 37.0797 6.35299 36.4192 6.03661C35.6204 5.65254 34.4375 5.84458 33.0652 6.33917C31.1831 7.01751 7.12107 17.2313 5.73086 17.8226C4.41251 18.3821 3.16602 18.9928 3.16602 19.877C3.16602 20.4987 3.53499 20.8482 4.55208 21.2116C5.61063 21.5887 8.27636 22.3969 9.85036 22.8307C11.3663 23.2493 13.0923 22.886 14.0597 22.285C15.0851 21.6481 26.9185 13.7318 27.7683 13.0383C28.6168 12.3448 29.294 13.2331 28.6003 13.928C28.3378 14.1904 27.0125 15.4812 25.4078 17.044C22.7703 19.6127 19.3785 22.9161 18.7126 23.5947C17.4122 24.9196 18.3354 26.2929 19.2073 26.8428C20.2037 27.47 27.369 32.275 28.4482 33.0459C29.5275 33.8168 30.622 34.1663 31.6239 34.1663C32.6258 34.1663 33.1537 32.847 33.6526 31.3148Z" fill="#6ACAAD"/>
</svg>
