<svg width="41" height="40" viewBox="0 0 41 40" fill="none" xmlns="http://www.w3.org/2000/svg">
<path fill-rule="evenodd" clip-rule="evenodd" d="M5.96318 8.47036C5.33398 9.36681 5.33398 12.0315 5.33398 17.3608V19.9853C5.33398 29.3821 12.3989 33.9422 16.8316 35.8785C18.034 36.4037 18.6352 36.6663 20.334 36.6663C22.0327 36.6663 22.634 36.4037 23.8364 35.8785C28.269 33.9422 35.334 29.3821 35.334 19.9853V17.3608C35.334 12.0315 35.334 9.36681 34.7048 8.47036C34.0756 7.57391 31.5701 6.71627 26.5591 5.001L25.6044 4.6742C22.9923 3.78007 21.6863 3.33301 20.334 3.33301C18.9817 3.33301 17.6756 3.78007 15.0635 4.6742L14.1088 5.001C9.09786 6.71627 6.59237 7.57391 5.96318 8.47036ZM27.7507 18.2497L22.084 13.9997C21.0469 13.2219 19.621 13.2219 18.584 13.9997L12.9173 18.2497C12.365 18.6639 12.2531 19.4474 12.6673 19.9997C13.0815 20.552 13.865 20.6639 14.4173 20.2497L20.084 15.9997C20.2321 15.8886 20.4358 15.8886 20.584 15.9997L26.2507 20.2497C26.8029 20.6639 27.5864 20.552 28.0007 19.9997C28.4149 19.4474 28.3029 18.6639 27.7507 18.2497ZM24.4173 22.4163L21.084 19.9163C20.6395 19.583 20.0284 19.583 19.584 19.9163L16.2507 22.4163C15.6984 22.8306 15.5864 23.6141 16.0007 24.1663C16.4149 24.7186 17.1984 24.8306 17.7507 24.4163L20.334 22.4788L22.9173 24.4163C23.4696 24.8306 24.2531 24.7186 24.6673 24.1663C25.0815 23.6141 24.9696 22.8306 24.4173 22.4163Z" fill="#6ACAAD"/>
</svg>
