<svg width="40" height="40" viewBox="0 0 40 40" fill="none" xmlns="http://www.w3.org/2000/svg">
<path d="M16.7997 13.1615C18.5941 9.94252 19.4913 8.33301 20.8327 8.33301C22.1741 8.33301 23.0713 9.94252 24.8657 13.1615L25.3299 13.9943C25.8399 14.9091 26.0948 15.3665 26.4923 15.6682C26.8899 15.97 27.385 16.082 28.3752 16.3061L29.2767 16.51C32.7612 17.2985 34.5035 17.6927 34.918 19.0256C35.3325 20.3586 34.1447 21.7475 31.7692 24.5254L31.1546 25.2441C30.4796 26.0335 30.1421 26.4282 29.9902 26.9164C29.8384 27.4047 29.8894 27.9313 29.9915 28.9845L30.0844 29.9434C30.4435 33.6497 30.6231 35.5028 29.5379 36.3267C28.4527 37.1505 26.8214 36.3994 23.5588 34.8972L22.7147 34.5085C21.7876 34.0816 21.3241 33.8682 20.8327 33.8682C20.3413 33.8682 19.8777 34.0817 18.9506 34.5085L18.1066 34.8972C14.844 36.3994 13.2127 37.1505 12.1275 36.3267C11.0423 35.5028 11.2218 33.6497 11.581 29.9434L11.6739 28.9845C11.776 27.9313 11.827 27.4047 11.6752 26.9164C11.5233 26.4282 11.1858 26.0335 10.5107 25.2441L9.89615 24.5254C7.52062 21.7475 6.33285 20.3586 6.74736 19.0256C7.16187 17.6927 8.90415 17.2985 12.3887 16.51L13.2902 16.3061C14.2804 16.082 14.7755 15.97 15.173 15.6682C15.5706 15.3665 15.8255 14.9091 16.3354 13.9943L16.7997 13.1615Z" fill="#6ACAAD"/>
<path d="M8.11286 4.16698C8.16284 3.99068 8.47579 3.98962 8.52696 4.16558C8.76063 4.9691 9.19392 6.1568 9.84913 6.80759C10.5043 7.45839 11.6949 7.88365 12.5 8.11188C12.6763 8.16187 12.6774 8.47481 12.5014 8.52598C11.6979 8.75965 10.5102 9.19294 9.8594 9.84815C9.2086 10.5034 8.78335 11.694 8.55511 12.499C8.50513 12.6753 8.19218 12.6764 8.14101 12.5004C7.90734 11.6969 7.47405 10.5092 6.81884 9.85842C6.16363 9.20763 4.97304 8.78237 4.16796 8.55413C3.99165 8.50415 3.9906 8.19121 4.16656 8.14003C4.97008 7.90636 6.15777 7.47307 6.80857 6.81786C7.45937 6.16265 7.88462 4.97206 8.11286 4.16698Z" fill="#6ACAAD"/>
<path fill-rule="evenodd" clip-rule="evenodd" d="M31.6667 5.41699C32.357 5.41699 32.9167 5.97664 32.9167 6.66699V7.08366H33.3333C34.0237 7.08366 34.5833 7.6433 34.5833 8.33366C34.5833 9.02401 34.0237 9.58366 33.3333 9.58366H32.9167V10.0003C32.9167 10.6907 32.357 11.2503 31.6667 11.2503C30.9763 11.2503 30.4167 10.6907 30.4167 10.0003V9.58366H30C29.3096 9.58366 28.75 9.02401 28.75 8.33366C28.75 7.6433 29.3096 7.08366 30 7.08366H30.4167V6.66699C30.4167 5.97664 30.9763 5.41699 31.6667 5.41699Z" fill="#6ACAAD"/>
</svg>
