<svg width="40" height="40" viewBox="0 0 40 40" fill="none" xmlns="http://www.w3.org/2000/svg">
<path fill-rule="evenodd" clip-rule="evenodd" d="M35.1688 13.3392C35.0744 13.3333 34.9716 13.3333 34.8649 13.3333L34.8383 13.3333H30.6575C27.2114 13.3333 24.2627 16.0459 24.2627 19.5833C24.2627 23.1207 27.2114 25.8333 30.6575 25.8333H34.8383L34.8649 25.8334C34.9716 25.8334 35.0744 25.8334 35.1688 25.8275C36.5686 25.7391 37.8065 24.6437 37.9106 23.1137C37.9174 23.0134 37.9174 22.9052 37.9173 22.805L37.9173 22.7778V16.3889L37.9173 16.3617C37.9174 16.2615 37.9174 16.1533 37.9106 16.053C37.8065 14.523 36.5686 13.4276 35.1688 13.3392ZM30.2868 21.25C31.174 21.25 31.8932 20.5038 31.8932 19.5833C31.8932 18.6629 31.174 17.9167 30.2868 17.9167C29.3996 17.9167 28.6804 18.6629 28.6804 19.5833C28.6804 20.5038 29.3996 21.25 30.2868 21.25Z" fill="#6ACAAD"/>
<path fill-rule="evenodd" clip-rule="evenodd" d="M34.8639 28.3334C35.1123 28.3269 35.3004 28.5571 35.233 28.7963C34.8984 29.9837 34.3674 30.9958 33.5152 31.8479C32.268 33.0952 30.6864 33.6487 28.7324 33.9114C26.8337 34.1667 24.4076 34.1667 21.3447 34.1667H17.8233C14.7604 34.1667 12.3343 34.1667 10.4356 33.9114C8.48158 33.6487 6.9 33.0952 5.65272 31.8479C4.40545 30.6007 3.85192 29.0191 3.58921 27.065C3.33394 25.1663 3.33396 22.7403 3.33398 19.6774V19.4893C3.33396 16.4264 3.33394 14.0003 3.58921 12.1016C3.85192 10.1476 4.40545 8.56601 5.65272 7.31874C6.89999 6.07147 8.48158 5.51794 10.4356 5.25523C12.3343 4.99995 14.7604 4.99997 17.8233 5L21.3447 5C24.4076 4.99997 26.8337 4.99995 28.7324 5.25523C30.6864 5.51794 32.268 6.07147 33.5152 7.31874C34.3674 8.17087 34.8984 9.18291 35.233 10.3703C35.3004 10.6096 35.1123 10.8398 34.8638 10.8333L30.6573 10.8333C25.9296 10.8333 21.7625 14.5682 21.7625 19.5833C21.7625 24.5985 25.9296 28.3333 30.6573 28.3333L34.8639 28.3334ZM9.58398 11.6667C8.89363 11.6667 8.33398 12.2263 8.33398 12.9167C8.33398 13.607 8.89363 14.1667 9.58398 14.1667H16.2507C16.941 14.1667 17.5007 13.607 17.5007 12.9167C17.5007 12.2263 16.941 11.6667 16.2507 11.6667H9.58398Z" fill="#6ACAAD"/>
</svg>
