<svg width="40" height="40" viewBox="0 0 40 40" fill="none" xmlns="http://www.w3.org/2000/svg">
<path fill-rule="evenodd" clip-rule="evenodd" d="M20.0007 36.6663C29.2054 36.6663 36.6673 29.2044 36.6673 19.9997C36.6673 10.7949 29.2054 3.33301 20.0007 3.33301C10.7959 3.33301 3.33398 10.7949 3.33398 19.9997C3.33398 29.2044 10.7959 36.6663 20.0007 36.6663ZM29.9233 21.2495H24.8432C24.6132 22.1432 24.1423 22.9403 23.5038 23.5673L26.0442 27.9675C28.1354 26.3789 29.5821 23.9858 29.9233 21.2495ZM23.8802 29.2193L21.3394 24.8184C20.9133 24.9366 20.4643 24.9997 20.0007 24.9997C19.5369 24.9997 19.0879 24.9365 18.6618 24.8184L16.121 29.2192C17.314 29.7218 18.6249 29.9997 20.0007 29.9997C21.3764 29.9997 22.6873 29.7219 23.8802 29.2193ZM13.957 27.9674L16.4974 23.5672C15.859 22.9402 15.3881 22.1432 15.1581 21.2495H10.078C10.4191 23.9858 11.8658 26.3788 13.957 27.9674ZM29.9233 18.7495H24.8431C24.613 17.8558 24.1421 17.0589 23.5037 16.432L26.0442 12.0318C28.1353 13.6203 29.582 16.0132 29.9233 18.7495ZM23.8801 10.78C22.6872 10.2775 21.3764 9.99967 20.0007 9.99967C18.6249 9.99967 17.314 10.2775 16.1211 10.7801L18.6619 15.1809C19.088 15.0628 19.537 14.9997 20.0007 14.9997C20.4643 14.9997 20.9132 15.0628 21.3393 15.1809L23.8801 10.78ZM16.4975 16.432L13.9571 12.0319C11.866 13.6204 10.4193 16.0133 10.078 18.7495H15.1582C15.3883 17.8559 15.8591 17.0589 16.4975 16.432Z" fill="#589FFF"/>
</svg>
