<svg width="54" height="54" viewBox="0 0 54 54" fill="none" xmlns="http://www.w3.org/2000/svg">
<g clip-path="url(#clip0_2484_957)">
<path d="M36.2252 47.5206L35.6101 46.1525L36.2252 47.5206ZM6.47763 36.2254L5.10954 36.8405L6.47763 36.2254ZM17.7729 6.47781L17.1578 5.10972L17.7729 6.47781ZM47.5204 17.773L46.1523 18.3881L47.5204 17.773ZM25.499 27.005C25.5023 27.8334 26.1764 28.5024 27.0048 28.4992C27.8333 28.496 28.5022 27.8218 28.499 26.9934L25.499 27.005ZM26.9205 6.74249L28.4205 6.73668L26.9205 6.74249ZM24.6672 4.61423L24.5116 3.12233L24.6672 4.61423ZM35.7423 4.64847C34.9708 4.34671 34.1007 4.72753 33.799 5.49905C33.4972 6.27056 33.878 7.14062 34.6496 7.44237L35.7423 4.64847ZM35.0306 14.3263C34.3309 13.8827 33.4041 14.0903 32.9606 14.79C32.517 15.4897 32.7247 16.4165 33.4243 16.86L35.0306 14.3263ZM35.6101 46.1525C25.032 50.9083 12.6015 46.1884 7.84573 35.6103L5.10954 36.8405C10.5447 48.9297 24.751 54.3239 36.8403 48.8887L35.6101 46.1525ZM7.84573 35.6103C3.08995 25.0322 7.80985 12.6017 18.3879 7.8459L17.1578 5.10972C5.06854 10.5449 -0.325634 24.7512 5.10954 36.8405L7.84573 35.6103ZM46.1523 18.3881C50.9081 28.9662 46.1882 41.3967 35.6101 46.1525L36.8403 48.8887C48.9295 43.4535 54.3237 29.2472 48.8885 17.158L46.1523 18.3881ZM28.499 26.9934L28.4205 6.73668L25.4205 6.74831L25.499 27.005L28.499 26.9934ZM18.3879 7.8459C20.4872 6.9021 22.6566 6.33216 24.8229 6.10614L24.5116 3.12233C22.0317 3.38107 19.5518 4.03339 17.1578 5.10972L18.3879 7.8459ZM34.6496 7.44237C39.5916 9.37528 43.8052 13.1675 46.1523 18.3881L48.8885 17.158C46.2065 11.1925 41.386 6.85582 35.7423 4.64847L34.6496 7.44237ZM28.4205 6.73668C28.4126 4.71201 26.7313 2.89074 24.5116 3.12233L24.8229 6.10614C24.972 6.09058 25.1039 6.13793 25.2152 6.24504C25.333 6.35837 25.4197 6.53562 25.4205 6.74831L28.4205 6.73668ZM34.5847 36.2975C29.4494 40.4869 21.8902 39.7202 17.7008 34.5849L15.3762 36.4813C20.613 42.9004 30.062 43.8588 36.4811 38.622L34.5847 36.2975ZM17.7008 34.5849C13.5113 29.4496 14.2781 21.8904 19.4134 17.7009L17.5169 15.3764C11.0978 20.6132 10.1394 30.0622 15.3762 36.4813L17.7008 34.5849ZM36.2973 19.4135C40.4867 24.5488 39.72 32.108 34.5847 36.2975L36.4811 38.622C42.9002 33.3852 43.8587 23.9362 38.6219 17.5171L36.2973 19.4135ZM19.4134 17.7009C21.6602 15.8679 24.3672 14.9844 27.0562 14.999L27.0724 11.999C23.7125 11.9809 20.3232 13.087 17.5169 15.3764L19.4134 17.7009ZM33.4243 16.86C34.4843 17.532 35.4574 18.384 36.2973 19.4135L38.6219 17.5171C37.5757 16.2348 36.3592 15.1685 35.0306 14.3263L33.4243 16.86Z" fill="#73AEFF"/>
</g>
<defs>
<clipPath id="clip0_2484_957">
<rect width="54" height="54" fill="white"/>
</clipPath>
</defs>
</svg>
